<svg xmlns="http://www.w3.org/2000/svg" viewBox="0 0 50 50"><path d="M25 4c.566 0 1.097.22 1.497.62L45.38 23.503a2.12 2.12 0 010 2.995L26.497 45.38c-.4.4-.931.62-1.497.62s-1.097-.22-1.497-.62L4.62 26.497a2.12 2.12 0 010-2.995l12.32-12.32 2.274 2.274a5.985 5.985 0 001.543 5.786c.368.368.786.685 1.243.945v9.63a5.984 5.984 0 00-3 5.182c0 3.308 2.692 6 6 6s6-2.692 6-6a5.984 5.984 0 00-3-5.182v-7.575l1.214 1.214a5.985 5.985 0 001.543 5.786A5.96 5.96 0 0035 31a5.963 5.963 0 004.243-1.757 6.007 6.007 0 000-8.485 5.932 5.932 0 00-4.223-1.749c-.529 0-1.055.07-1.562.206l-2.672-2.672a5.985 5.985 0 00-1.543-5.786 5.932 5.932 0 00-4.223-1.749c-.529 0-1.055.07-1.562.206L21.183 6.94l2.32-2.32c.4-.4.931-.62 1.497-.62m0-2a4.105 4.105 0 00-2.912 1.206L18.354 6.94l4.624 4.624a4.022 4.022 0 012.041-.556c1.017 0 2.032.386 2.809 1.163 1.316 1.316 1.509 3.316.607 4.85l4.543 4.543a4.022 4.022 0 012.041-.556c1.017 0 2.032.386 2.809 1.163a4 4 0 01-5.656 5.657c-1.316-1.316-1.509-3.316-.607-4.85l-4.543-4.543c-.324.19-.666.33-1.021.421v12.285c1.722.446 3 1.997 3 3.859a4 4 0 01-8 0 3.991 3.991 0 013-3.859V18.857a3.962 3.962 0 01-1.828-1.028c-1.316-1.316-1.509-3.316-.607-4.85L16.94 8.354 3.206 22.088a4.117 4.117 0 000 5.823l18.882 18.882C22.892 47.598 23.946 48 25 48s2.108-.402 2.912-1.206l18.882-18.882a4.117 4.117 0 000-5.823L27.912 3.206A4.105 4.105 0 0025 2z"/></svg>